<svg width="210.06mm" height="148.08mm" viewBox="0 0 2977.23 2098.77"
 xmlns="http://www.w3.org/2000/svg" xmlns:xlink="http://www.w3.org/1999/xlink" version="1.2" baseProfile="full">
<title>CDE_INTRO.mscz</title>
<desc>Generated by MuseScore Studio 4.6.5</desc>
<polyline class="StaffLines" fill="none" stroke="#000000" stroke-width="2.73" stroke-linejoin="bevel" points="549.212,598.818 2552.03,598.818" />
<polyline class="StaffLines" fill="none" stroke="#000000" stroke-width="2.73" stroke-linejoin="bevel" points="549.212,623.621 2552.03,623.621" />
<polyline class="StaffLines" fill="none" stroke="#000000" stroke-width="2.73" stroke-linejoin="bevel" points="549.212,648.424 2552.03,648.424" />
<polyline class="StaffLines" fill="none" stroke="#000000" stroke-width="2.73" stroke-linejoin="bevel" points="549.212,673.227 2552.03,673.227" />
<polyline class="StaffLines" fill="none" stroke="#000000" stroke-width="2.73" stroke-linejoin="bevel" points="549.212,698.031 2552.03,698.031" />
<polyline class="StaffLines" fill="none" stroke="#000000" stroke-width="2.73" stroke-linejoin="bevel" points="425.196,908.857 2552.03,908.857" />
<polyline class="StaffLines" fill="none" stroke="#000000" stroke-width="2.73" stroke-linejoin="bevel" points="425.196,933.661 2552.03,933.661" />
<polyline class="StaffLines" fill="none" stroke="#000000" stroke-width="2.73" stroke-linejoin="bevel" points="425.196,958.464 2552.03,958.464" />
<polyline class="StaffLines" fill="none" stroke="#000000" stroke-width="2.73" stroke-linejoin="bevel" points="425.196,983.267 2552.03,983.267" />
<polyline class="StaffLines" fill="none" stroke="#000000" stroke-width="2.73" stroke-linejoin="bevel" points="425.196,1008.07 2552.03,1008.07" />
<path class="MeasureNumber" d="M438.874,844.691 C440.754,844.091 441.514,843.771 442.474,843.131 C444.354,841.891 445.514,839.691 445.514,837.451 C445.514,833.651 442.474,831.091 437.994,831.091 C433.634,831.091 429.954,833.811 429.954,837.091 C429.954,838.731 430.954,839.851 432.474,839.851 C433.794,839.851 434.754,838.891 434.754,837.571 C434.754,836.891 434.554,836.411 433.914,835.771 C433.514,835.411 433.354,835.131 433.354,834.851 C433.354,833.891 435.354,832.891 437.234,832.891 C439.914,832.891 441.514,834.371 441.514,836.851 C441.514,840.411 438.994,843.771 436.314,843.771 C436.194,843.771 435.834,843.731 435.394,843.691 C434.234,843.611 434.234,843.611 433.994,843.611 C433.114,843.611 432.634,844.011 432.634,844.731 C432.634,845.371 433.074,845.771 433.794,845.771 C433.994,845.771 434.274,845.731 434.594,845.691 C435.154,845.571 435.754,845.531 436.114,845.531 C437.994,845.531 439.274,847.211 439.274,849.691 C439.274,854.011 437.154,858.171 432.314,858.171 C430.074,858.171 428.154,857.051 428.154,855.771 C428.154,855.331 428.314,855.171 428.954,854.891 C430.114,854.371 430.594,853.651 430.594,852.571 C430.594,851.171 429.474,850.091 428.034,850.091 C426.314,850.091 425.194,851.451 425.194,853.531 C425.194,857.411 428.154,859.851 432.954,859.851 C438.994,859.851 443.594,855.811 443.594,850.451 C443.594,847.331 441.674,845.571 438.874,844.691"/>
<polyline class="BarLine" fill="none" stroke="#000000" stroke-width="4.46" stroke-linejoin="bevel" points="2518.79,907.493 2518.79,1009.43" />
<polyline class="BarLine" fill="none" stroke="#000000" stroke-width="13.64" stroke-linejoin="bevel" points="2545.21,907.493 2545.21,1009.43" />
<polyline class="BarLine" fill="none" stroke="#000000" stroke-width="4.46" stroke-linejoin="bevel" points="2549.8,597.454 2549.8,699.395" />
<polyline class="BarLine" fill="none" stroke="#000000" stroke-width="4.46" stroke-linejoin="bevel" points="1663.8,907.493 1663.8,1009.43" />
<polyline class="BarLine" fill="none" stroke="#000000" stroke-width="4.46" stroke-linejoin="bevel" points="1632.36,597.454 1632.36,699.395" />
<polyline class="LedgerLine" fill="none" stroke="#000000" stroke-width="3.97" stroke-linejoin="bevel" points="834.607,1032.87 884.197,1032.87" />
<polyline class="LedgerLine" fill="none" stroke="#000000" stroke-width="3.97" stroke-linejoin="bevel" points="2098.74,1032.87 2148.33,1032.87" />
<polyline class="LedgerLine" fill="none" stroke="#000000" stroke-width="3.97" stroke-linejoin="bevel" points="740.723,722.834 790.314,722.834" />
<polyline class="LedgerLine" fill="none" stroke="#000000" stroke-width="3.97" stroke-linejoin="bevel" points="1658.16,722.834 1707.75,722.834" />
<polyline class="LedgerLine" fill="none" stroke="#000000" stroke-width="3.97" stroke-linejoin="bevel" points="1689.6,1032.87 1739.19,1032.87" />
<polyline class="Stem" fill="none" stroke="#000000" stroke-width="2.73" stroke-linejoin="bevel" points="874.168,1028.9 874.168,946.062" />
<polyline class="Stem" fill="none" stroke="#000000" stroke-width="2.73" stroke-linejoin="bevel" points="1283.56,694.062 1283.56,611.22" />
<polyline class="Stem" fill="none" stroke="#000000" stroke-width="2.73" stroke-linejoin="bevel" points="1729.16,1028.9 1729.16,946.062" />
<polyline class="Stem" fill="none" stroke="#000000" stroke-width="2.73" stroke-linejoin="bevel" points="1697.72,718.865 1697.72,636.023" />
<polyline class="Stem" fill="none" stroke="#000000" stroke-width="2.73" stroke-linejoin="bevel" points="1031.92,706.464 1031.92,623.621" />
<polyline class="Stem" fill="none" stroke="#000000" stroke-width="2.73" stroke-linejoin="bevel" points="1949.35,706.464 1949.35,623.621" />
<polyline class="Stem" fill="none" stroke="#000000" stroke-width="2.73" stroke-linejoin="bevel" points="1419.69,1004.1 1419.69,921.259" />
<polyline class="Stem" fill="none" stroke="#000000" stroke-width="2.73" stroke-linejoin="bevel" points="2200.99,694.062 2200.99,611.22" />
<polyline class="Stem" fill="none" stroke="#000000" stroke-width="2.73" stroke-linejoin="bevel" points="1146.93,1016.5 1146.93,933.661" />
<polyline class="Stem" fill="none" stroke="#000000" stroke-width="2.73" stroke-linejoin="bevel" points="2138.3,1028.9 2138.3,946.062" />
<polyline class="Stem" fill="none" stroke="#000000" stroke-width="2.73" stroke-linejoin="bevel" points="780.284,718.865 780.284,636.023" />
<polyline class="Stem" fill="none" stroke="#000000" stroke-width="2.73" stroke-linejoin="bevel" points="601.407,1016.5 601.407,933.661" />
<path class="Note" transform="matrix(0.992126,0,0,0.992126,1252.68,698.031)" d="M21.3,-13.2 C11.6,-13.2 0,-5.1 0,4.2 C0,8.5 3.1,13.3 11.2,13.3 C21.6,13.3 32.5,4.8 32.5,-4 C32.5,-9.9 27.5,-13.2 21.3,-13.2 M7.5,8.6 C4.2,8.6 3.5,5.9 3.5,5 C3.5,0.1 20.3,-8.5 25,-8.5 C27.4,-8.5 29,-7.1 29,-4.9 C29,0.1 12.1,8.6 7.5,8.6"/>
<path class="Note" transform="matrix(0.992126,0,0,0.992126,1001.04,710.432)" d="M0,4.2 C0,8.5 3.1,13.3 11.2,13.3 C21.6,13.3 32.5,4.8 32.5,-4 C32.5,-9.9 27.5,-13.2 21.3,-13.2 C11.6,-13.2 0,-5 0,4.2"/>
<path class="Note" transform="matrix(0.992126,0,0,0.992126,1666.84,722.834)" d="M0,4.2 C0,8.5 3.1,13.3 11.2,13.3 C21.6,13.3 32.5,4.8 32.5,-4 C32.5,-9.9 27.5,-13.2 21.3,-13.2 C11.6,-13.2 0,-5 0,4.2"/>
<path class="Note" transform="matrix(0.992126,0,0,0.992126,1388.81,1008.07)" d="M0,4.2 C0,8.5 3.1,13.3 11.2,13.3 C21.6,13.3 32.5,4.8 32.5,-4 C32.5,-9.9 27.5,-13.2 21.3,-13.2 C11.6,-13.2 0,-5 0,4.2"/>
<path class="Note" transform="matrix(0.992126,0,0,0.992126,1918.47,710.432)" d="M0,4.2 C0,8.5 3.1,13.3 11.2,13.3 C21.6,13.3 32.5,4.8 32.5,-4 C32.5,-9.9 27.5,-13.2 21.3,-13.2 C11.6,-13.2 0,-5 0,4.2"/>
<path class="Note" transform="matrix(0.992126,0,0,0.992126,1116.05,1020.47)" d="M0,4.2 C0,8.5 3.1,13.3 11.2,13.3 C21.6,13.3 32.5,4.8 32.5,-4 C32.5,-9.9 27.5,-13.2 21.3,-13.2 C11.6,-13.2 0,-5 0,4.2"/>
<path class="Note" transform="matrix(0.992126,0,0,0.992126,2170.11,698.031)" d="M21.3,-13.2 C11.6,-13.2 0,-5.1 0,4.2 C0,8.5 3.1,13.3 11.2,13.3 C21.6,13.3 32.5,4.8 32.5,-4 C32.5,-9.9 27.5,-13.2 21.3,-13.2 M7.5,8.6 C4.2,8.6 3.5,5.9 3.5,5 C3.5,0.1 20.3,-8.5 25,-8.5 C27.4,-8.5 29,-7.1 29,-4.9 C29,0.1 12.1,8.6 7.5,8.6"/>
<path class="Note" transform="matrix(0.992126,0,0,0.992126,843.288,1032.87)" d="M0,4.2 C0,8.5 3.1,13.3 11.2,13.3 C21.6,13.3 32.5,4.8 32.5,-4 C32.5,-9.9 27.5,-13.2 21.3,-13.2 C11.6,-13.2 0,-5 0,4.2"/>
<path class="Note" transform="matrix(0.992126,0,0,0.992126,1698.28,1032.87)" d="M21.3,-13.2 C11.6,-13.2 0,-5.1 0,4.2 C0,8.5 3.1,13.3 11.2,13.3 C21.6,13.3 32.5,4.8 32.5,-4 C32.5,-9.9 27.5,-13.2 21.3,-13.2 M7.5,8.6 C4.2,8.6 3.5,5.9 3.5,5 C3.5,0.1 20.3,-8.5 25,-8.5 C27.4,-8.5 29,-7.1 29,-4.9 C29,0.1 12.1,8.6 7.5,8.6"/>
<path class="Note" transform="matrix(0.992126,0,0,0.992126,749.404,722.834)" d="M0,4.2 C0,8.5 3.1,13.3 11.2,13.3 C21.6,13.3 32.5,4.8 32.5,-4 C32.5,-9.9 27.5,-13.2 21.3,-13.2 C11.6,-13.2 0,-5 0,4.2"/>
<path class="Note" transform="matrix(0.992126,0,0,0.992126,2107.42,1032.87)" d="M21.3,-13.2 C11.6,-13.2 0,-5.1 0,4.2 C0,8.5 3.1,13.3 11.2,13.3 C21.6,13.3 32.5,4.8 32.5,-4 C32.5,-9.9 27.5,-13.2 21.3,-13.2 M7.5,8.6 C4.2,8.6 3.5,5.9 3.5,5 C3.5,0.1 20.3,-8.5 25,-8.5 C27.4,-8.5 29,-7.1 29,-4.9 C29,0.1 12.1,8.6 7.5,8.6"/>
<path class="Note" transform="matrix(0.992126,0,0,0.992126,570.527,1020.47)" d="M0,4.2 C0,8.5 3.1,13.3 11.2,13.3 C21.6,13.3 32.5,4.8 32.5,-4 C32.5,-9.9 27.5,-13.2 21.3,-13.2 C11.6,-13.2 0,-5 0,4.2"/>
<path class="Clef" transform="matrix(0.992126,0,0,0.992126,445.039,983.267)" d="M12.3,51.3 C12.3,57.9 17.3,66.6 30.8,66.6 C35.5,66.6 39.6,65.4 43.2,63.2 C48.6,59.4 50,52.8 50,46.5 C50,42.6 49.4,38.1 48.4,32.4 C48.1,30.4 47.5,27.4 46.9,23.5 C56.7,20.3 64,10.1 64,-0.2 C64,-15.3 53.3,-25.5 38.7,-25.5 C37.7,-31.5 36.7,-37.4 35.9,-43 C46.4,-54.1 53.7,-66.6 53.7,-82.5 C53.7,-91.6 50.9,-99 49.3,-102.6 C46.9,-107.7 44,-111.2 42.2,-111.2 C41.5,-111.2 38.4,-110 35.1,-106.1 C28.7,-98.5 26.9,-85.7 26.9,-77.3 C26.9,-71.9 27.4,-67 29.1,-55.8 C29,-55.7 23.8,-50.4 21.7,-48.7 C12.6,-40.3 0,-28.1 0,-8.1 C0,10.6 16.3,25.3 34.9,25.3 C37.8,25.3 40.5,25 42.8,24.6 C44.7,34.2 45.9,41.2 45.9,46.5 C45.9,56.9 40.5,62.4 30.4,62.4 C28,62.4 25.9,61.9 25.7,61.9 C25.6,61.8 25.4,61.7 25.4,61.6 C25.4,61.4 25.6,61.3 25.9,61.3 C30.6,60.5 35.3,56.5 35.3,50.1 C35.3,44.7 31.2,39 23.7,39 C16.7,39 12.3,44.7 12.3,51.3 M33.2,-82.2 C34.1,-86.2 38.7,-96.7 43.9,-96.7 C45.4,-96.7 47.8,-91.9 47.8,-84.9 C47.8,-74.5 40.1,-66.7 33.2,-59.9 C32.6,-63.9 32.1,-67.8 32.1,-72 C32.1,-75.7 32.4,-79.1 33.2,-82.2 M42,20.6 C40,21 38.1,21.2 36.2,21.2 C21.9,21.2 9.7,11.2 9.7,-3.9 C9.7,-16.1 18.3,-27 27.1,-34.6 C28.8,-36.1 30.4,-37.5 31.9,-39 C32.8,-33.6 33.5,-28.9 34.2,-24.8 C25.1,-22.1 18.9,-12.5 18.9,-3.1 C18.9,3.9 24.4,13.5 32.4,13.5 C33.2,13.5 34.1,13.1 34.1,12.2 C34.1,11.3 33.1,10.8 31.9,10 C28,7.6 25.8,5 25.8,0.1 C25.8,-6 30.4,-10.9 36.2,-12.3 L42,20.6 M56.2,2.1 C56.2,9.2 53.3,16.5 46.2,19.4 C44.1,7.4 41.4,-8.5 40.7,-12.9 C49.7,-12.9 56.2,-6.8 56.2,2.1"/>
<path class="Clef" transform="matrix(0.992126,0,0,0.992126,569.054,673.227)" d="M12.3,51.3 C12.3,57.9 17.3,66.6 30.8,66.6 C35.5,66.6 39.6,65.4 43.2,63.2 C48.6,59.4 50,52.8 50,46.5 C50,42.6 49.4,38.1 48.4,32.4 C48.1,30.4 47.5,27.4 46.9,23.5 C56.7,20.3 64,10.1 64,-0.2 C64,-15.3 53.3,-25.5 38.7,-25.5 C37.7,-31.5 36.7,-37.4 35.9,-43 C46.4,-54.1 53.7,-66.6 53.7,-82.5 C53.7,-91.6 50.9,-99 49.3,-102.6 C46.9,-107.7 44,-111.2 42.2,-111.2 C41.5,-111.2 38.4,-110 35.1,-106.1 C28.7,-98.5 26.9,-85.7 26.9,-77.3 C26.9,-71.9 27.4,-67 29.1,-55.8 C29,-55.7 23.8,-50.4 21.7,-48.7 C12.6,-40.3 0,-28.1 0,-8.1 C0,10.6 16.3,25.3 34.9,25.3 C37.8,25.3 40.5,25 42.8,24.6 C44.7,34.2 45.9,41.2 45.9,46.5 C45.9,56.9 40.5,62.4 30.4,62.4 C28,62.4 25.9,61.9 25.7,61.9 C25.6,61.8 25.4,61.7 25.4,61.6 C25.4,61.4 25.6,61.3 25.9,61.3 C30.6,60.5 35.3,56.5 35.3,50.1 C35.3,44.7 31.2,39 23.7,39 C16.7,39 12.3,44.7 12.3,51.3 M33.2,-82.2 C34.1,-86.2 38.7,-96.7 43.9,-96.7 C45.4,-96.7 47.8,-91.9 47.8,-84.9 C47.8,-74.5 40.1,-66.7 33.2,-59.9 C32.6,-63.9 32.1,-67.8 32.1,-72 C32.1,-75.7 32.4,-79.1 33.2,-82.2 M42,20.6 C40,21 38.1,21.2 36.2,21.2 C21.9,21.2 9.7,11.2 9.7,-3.9 C9.7,-16.1 18.3,-27 27.1,-34.6 C28.8,-36.1 30.4,-37.5 31.9,-39 C32.8,-33.6 33.5,-28.9 34.2,-24.8 C25.1,-22.1 18.9,-12.5 18.9,-3.1 C18.9,3.9 24.4,13.5 32.4,13.5 C33.2,13.5 34.1,13.1 34.1,12.2 C34.1,11.3 33.1,10.8 31.9,10 C28,7.6 25.8,5 25.8,0.1 C25.8,-6 30.4,-10.9 36.2,-12.3 L42,20.6 M56.2,2.1 C56.2,9.2 53.3,16.5 46.2,19.4 C44.1,7.4 41.4,-8.5 40.7,-12.9 C49.7,-12.9 56.2,-6.8 56.2,2.1"/>
<path class="TimeSig" transform="matrix(0.992126,0,0,0.992126,655.958,623.621)" d="M20.8,12.7 L20.8,20.1 L12.5,20.1 C11.8,20.1 11.1,20.7 11.1,21.5 L11.1,23.4 C11.1,24.2 11.8,24.8 12.5,24.8 L42.8,24.8 C43.6,24.8 44.2,24.2 44.2,23.4 L44.2,21.5 C44.2,20.7 43.6,20.1 42.8,20.1 L33.9,20.1 L33.9,12.7 L42.8,12.7 C43.6,12.7 44.2,12 44.2,11.2 L44.2,9.3 C44.2,8.6 43.6,7.9 42.8,7.9 L33.9,7.9 L33.9,-8 C33.9,-8.6 33.6,-9.1 33.1,-9.3 L31.9,-9.9 C31.7,-10 31.4,-10.1 31.2,-10.1 C30.9,-10 30.5,-9.9 30.3,-9.7 L21.2,-1.4 C20.9,-1.1 20.8,-0.7 20.8,-0.3 L20.8,7.9 L9.3,7.9 C9.3,7.9 20.4,-4.1 32.2,-19.9 C32.6,-20.4 32.7,-20.9 32.7,-21.3 C32.7,-21.8 32.5,-22.2 32.4,-22.3 L30.2,-24.5 C30,-24.7 29.6,-24.9 29.2,-24.9 C28.6,-24.9 15.1,-24.9 14.4,-24.9 C13.6,-24.9 13.1,-24.3 13,-23.7 C13,-23.7 12.5,-16.3 9.9,-8.2 C7.3,-0.1 4.3,4.9 1.7,8.6 C1.7,8.6 1.4,9.1 1.4,9.7 C1.4,9.9 1.4,10.1 1.5,10.3 C1.9,11 2.5,12.1 2.5,12.1 C2.5,12.1 2.7,12.7 3.6,12.7 L20.8,12.7 "/>
<path class="TimeSig" transform="matrix(0.992126,0,0,0.992126,655.958,673.227)" d="M20.8,12.7 L20.8,20.1 L12.5,20.1 C11.8,20.1 11.1,20.7 11.1,21.5 L11.1,23.4 C11.1,24.2 11.8,24.8 12.5,24.8 L42.8,24.8 C43.6,24.8 44.2,24.2 44.2,23.4 L44.2,21.5 C44.2,20.7 43.6,20.1 42.8,20.1 L33.9,20.1 L33.9,12.7 L42.8,12.7 C43.6,12.7 44.2,12 44.2,11.2 L44.2,9.3 C44.2,8.6 43.6,7.9 42.8,7.9 L33.9,7.9 L33.9,-8 C33.9,-8.6 33.6,-9.1 33.1,-9.3 L31.9,-9.9 C31.7,-10 31.4,-10.1 31.2,-10.1 C30.9,-10 30.5,-9.9 30.3,-9.7 L21.2,-1.4 C20.9,-1.1 20.8,-0.7 20.8,-0.3 L20.8,7.9 L9.3,7.9 C9.3,7.9 20.4,-4.1 32.2,-19.9 C32.6,-20.4 32.7,-20.9 32.7,-21.3 C32.7,-21.8 32.5,-22.2 32.4,-22.3 L30.2,-24.5 C30,-24.7 29.6,-24.9 29.2,-24.9 C28.6,-24.9 15.1,-24.9 14.4,-24.9 C13.6,-24.9 13.1,-24.3 13,-23.7 C13,-23.7 12.5,-16.3 9.9,-8.2 C7.3,-0.1 4.3,4.9 1.7,8.6 C1.7,8.6 1.4,9.1 1.4,9.7 C1.4,9.9 1.4,10.1 1.5,10.3 C1.9,11 2.5,12.1 2.5,12.1 C2.5,12.1 2.7,12.7 3.6,12.7 L20.8,12.7 "/>
<path class="Lyrics" d="M530.929,1106.29 L523.825,1080.9 L528.048,1080.9 L533.127,1101.55 L533.224,1101.55 L538.962,1080.9 L543.063,1080.9 L548.825,1101.55 L548.923,1101.55 L554.001,1080.9 L558.2,1080.9 L551.12,1106.29 L546.798,1106.29 L541.061,1086.64 L540.964,1086.64 L535.251,1106.29 L530.929,1106.29 M562.823,1106.29 L562.823,1071.06 L567.071,1071.06 L567.071,1084.95 L567.169,1084.95 C567.852,1083.52 568.869,1082.4 570.22,1081.61 C571.571,1080.81 573.191,1080.41 575.079,1080.41 C576.885,1080.41 578.468,1080.85 579.827,1081.72 C581.186,1082.59 582.248,1083.8 583.013,1085.34 C583.778,1086.89 584.161,1088.69 584.161,1090.74 L584.161,1106.29 L579.913,1106.29 L579.913,1091.47 C579.913,1089.17 579.359,1087.38 578.253,1086.1 C577.146,1084.81 575.6,1084.17 573.614,1084.17 C572.312,1084.17 571.168,1084.48 570.184,1085.1 C569.199,1085.72 568.434,1086.57 567.889,1087.66 C567.344,1088.75 567.071,1090.02 567.071,1091.47 L567.071,1106.29 L562.823,1106.29 M590.762,1106.29 L590.762,1080.9 L595.01,1080.9 L595.01,1106.29 L590.762,1106.29 M592.886,1076.6 C592.154,1076.6 591.527,1076.34 591.006,1075.82 C590.486,1075.3 590.225,1074.67 590.225,1073.94 C590.225,1073.19 590.486,1072.56 591.006,1072.05 C591.527,1071.54 592.154,1071.28 592.886,1071.28 C593.635,1071.28 594.266,1071.54 594.778,1072.05 C595.291,1072.56 595.548,1073.19 595.548,1073.94 C595.548,1074.67 595.291,1075.3 594.778,1075.82 C594.266,1076.34 593.635,1076.6 592.886,1076.6 M612.266,1106.78 C609.874,1106.78 607.794,1106.24 606.028,1105.15 C604.263,1104.07 602.899,1102.54 601.939,1100.56 C600.979,1098.59 600.499,1096.25 600.499,1093.57 L600.499,1093.54 C600.499,1090.88 600.987,1088.56 601.964,1086.59 C602.94,1084.62 604.307,1083.1 606.065,1082.02 C607.823,1080.95 609.874,1080.41 612.217,1080.41 C614.333,1080.41 616.148,1080.82 617.662,1081.64 C619.175,1082.46 620.368,1083.53 621.238,1084.83 C622.109,1086.13 622.634,1087.51 622.813,1088.95 L622.838,1089.15 L618.687,1089.15 L618.638,1088.95 C618.329,1087.69 617.65,1086.57 616.6,1085.61 C615.55,1084.65 614.089,1084.17 612.217,1084.17 C610.753,1084.17 609.467,1084.56 608.36,1085.33 C607.253,1086.1 606.391,1087.19 605.772,1088.6 C605.154,1090.01 604.844,1091.67 604.844,1093.59 L604.844,1093.62 C604.844,1095.59 605.158,1097.27 605.784,1098.67 C606.411,1100.07 607.282,1101.15 608.397,1101.89 C609.512,1102.64 610.801,1103.02 612.266,1103.02 C614.008,1103.02 615.42,1102.57 616.502,1101.69 C617.584,1100.8 618.305,1099.65 618.663,1098.23 L618.712,1098.04 L622.886,1098.04 L622.862,1098.21 C622.634,1099.82 622.044,1101.27 621.092,1102.57 C620.14,1103.86 618.911,1104.88 617.405,1105.64 C615.9,1106.4 614.187,1106.78 612.266,1106.78 M627.964,1106.29 L627.964,1071.06 L632.212,1071.06 L632.212,1084.95 L632.309,1084.95 C632.993,1083.52 634.01,1082.4 635.361,1081.61 C636.712,1080.81 638.331,1080.41 640.219,1080.41 C642.026,1080.41 643.609,1080.85 644.968,1081.72 C646.327,1082.59 647.389,1083.8 648.154,1085.34 C648.919,1086.89 649.301,1088.69 649.301,1090.74 L649.301,1106.29 L645.053,1106.29 L645.053,1091.47 C645.053,1089.17 644.5,1087.38 643.393,1086.1 C642.286,1084.81 640.74,1084.17 638.755,1084.17 C637.452,1084.17 636.309,1084.48 635.324,1085.1 C634.34,1085.72 633.575,1086.57 633.029,1087.66 C632.484,1088.75 632.212,1090.02 632.212,1091.47 L632.212,1106.29 L627.964,1106.29 "/>
<path class="Lyrics" d="M1002.78,797.331 C1000.93,797.331 999.345,796.949 998.035,796.184 C996.725,795.419 995.724,794.333 995.032,792.925 C994.34,791.517 993.994,789.853 993.994,787.932 L993.994,771.453 L998.242,771.453 L998.242,787.175 C998.242,789.242 998.727,790.825 999.695,791.924 C1000.66,793.022 1002.12,793.572 1004.08,793.572 C1005.09,793.572 1005.99,793.401 1006.8,793.059 C1007.61,792.717 1008.3,792.233 1008.89,791.606 C1009.47,790.98 1009.92,790.223 1010.23,789.336 C1010.54,788.449 1010.69,787.468 1010.69,786.394 L1010.69,771.453 L1014.94,771.453 L1014.94,796.843 L1010.69,796.843 L1010.69,793.23 L1010.6,793.23 C1010.14,794.011 1009.55,794.711 1008.83,795.329 C1008.1,795.948 1007.23,796.436 1006.23,796.794 C1005.22,797.152 1004.07,797.331 1002.78,797.331 M1030.41,797.331 C1028.42,797.331 1026.7,797.014 1025.26,796.379 C1023.81,795.745 1022.66,794.857 1021.82,793.718 C1020.99,792.579 1020.48,791.252 1020.3,789.739 L1020.27,789.519 L1024.52,789.519 L1024.57,789.763 C1024.83,791.033 1025.44,792.021 1026.4,792.729 C1027.36,793.437 1028.71,793.791 1030.43,793.791 C1031.59,793.791 1032.57,793.641 1033.38,793.34 C1034.2,793.039 1034.83,792.607 1035.26,792.046 C1035.7,791.484 1035.92,790.821 1035.92,790.056 L1035.92,790.032 C1035.92,789.12 1035.65,788.388 1035.09,787.834 C1034.54,787.281 1033.54,786.825 1032.09,786.467 L1028.06,785.491 C1026.47,785.1 1025.15,784.591 1024.1,783.965 C1023.05,783.338 1022.26,782.569 1021.74,781.658 C1021.22,780.746 1020.96,779.68 1020.96,778.459 L1020.96,778.435 C1020.96,776.97 1021.35,775.676 1022.14,774.553 C1022.93,773.43 1024.03,772.551 1025.44,771.916 C1026.85,771.282 1028.46,770.964 1030.28,770.964 C1032.14,770.964 1033.76,771.294 1035.13,771.953 C1036.51,772.612 1037.59,773.507 1038.38,774.639 C1039.17,775.77 1039.61,777.043 1039.71,778.459 L1039.73,778.777 L1035.68,778.777 L1035.66,778.606 C1035.49,777.369 1034.95,776.376 1034.03,775.627 C1033.11,774.879 1031.86,774.504 1030.28,774.504 C1029.26,774.504 1028.37,774.659 1027.62,774.968 C1026.87,775.277 1026.3,775.713 1025.9,776.274 C1025.5,776.836 1025.3,777.491 1025.3,778.24 L1025.3,778.264 C1025.3,778.834 1025.44,779.35 1025.71,779.814 C1025.98,780.278 1026.4,780.681 1026.99,781.023 C1027.57,781.365 1028.33,781.649 1029.26,781.877 L1033.29,782.854 C1035,783.261 1036.36,783.773 1037.38,784.392 C1038.39,785.01 1039.13,785.755 1039.59,786.626 C1040.04,787.497 1040.27,788.534 1040.27,789.739 L1040.27,789.763 C1040.27,791.244 1039.84,792.554 1038.99,793.694 C1038.13,794.833 1036.96,795.724 1035.47,796.367 C1033.98,797.01 1032.29,797.331 1030.41,797.331"/>
<path class="Lyrics" d="M2098.86,1114.83 L2098.86,1080.9 L2103.1,1080.9 L2103.1,1085.2 L2103.2,1085.2 C2103.74,1084.2 2104.4,1083.35 2105.19,1082.64 C2105.98,1081.94 2106.89,1081.39 2107.91,1081 C2108.94,1080.61 2110.05,1080.41 2111.26,1080.41 C2113.42,1080.41 2115.31,1080.95 2116.93,1082.03 C2118.55,1083.12 2119.81,1084.65 2120.71,1086.62 C2121.6,1088.6 2122.05,1090.92 2122.05,1093.59 L2122.05,1093.62 C2122.05,1096.29 2121.6,1098.61 2120.69,1100.58 C2119.79,1102.55 2118.54,1104.07 2116.93,1105.15 C2115.33,1106.24 2113.46,1106.78 2111.33,1106.78 C2110.14,1106.78 2109.03,1106.59 2107.99,1106.2 C2106.94,1105.82 2106.02,1105.28 2105.22,1104.57 C2104.41,1103.86 2103.74,1103.02 2103.2,1102.04 L2103.1,1102.04 L2103.1,1114.83 L2098.86,1114.83 M2110.43,1103.02 C2111.92,1103.02 2113.22,1102.63 2114.31,1101.87 C2115.4,1101.1 2116.24,1100.02 2116.82,1098.61 C2117.41,1097.2 2117.7,1095.54 2117.7,1093.62 L2117.7,1093.59 C2117.7,1091.64 2117.41,1089.96 2116.82,1088.55 C2116.24,1087.14 2115.4,1086.06 2114.31,1085.3 C2113.22,1084.55 2111.92,1084.17 2110.43,1084.17 C2109,1084.17 2107.73,1084.56 2106.62,1085.34 C2105.51,1086.12 2104.65,1087.22 2104.02,1088.63 C2103.39,1090.03 2103.08,1091.69 2103.08,1093.59 L2103.08,1093.62 C2103.08,1095.51 2103.4,1097.15 2104.03,1098.56 C2104.67,1099.97 2105.53,1101.06 2106.63,1101.85 C2107.73,1102.63 2109,1103.02 2110.43,1103.02 M2128.73,1114.83 C2128.33,1114.83 2127.92,1114.81 2127.5,1114.77 C2127.09,1114.73 2126.74,1114.69 2126.46,1114.64 L2126.46,1111.17 C2126.64,1111.2 2126.85,1111.24 2127.09,1111.27 C2127.32,1111.3 2127.57,1111.32 2127.83,1111.32 C2129.18,1111.32 2130.26,1111.08 2131.07,1110.61 C2131.87,1110.14 2132.53,1109.19 2133.03,1107.75 L2133.54,1106.31 L2124.12,1080.9 L2128.66,1080.9 L2135.99,1103.02 L2135.08,1102.04 L2136.35,1102.04 L2135.45,1103.02 L2142.8,1080.9 L2147.26,1080.9 L2137.35,1107.88 C2136.75,1109.49 2136.07,1110.81 2135.33,1111.83 C2134.58,1112.86 2133.67,1113.61 2132.62,1114.1 C2131.56,1114.59 2130.26,1114.83 2128.73,1114.83"/>
<path class="Lyrics" d="M1920.09,796.843 L1920.09,761.614 L1931.93,761.614 C1935.41,761.614 1938.39,762.309 1940.86,763.701 C1943.34,765.093 1945.24,767.095 1946.56,769.707 C1947.89,772.319 1948.55,775.473 1948.55,779.167 L1948.55,779.216 C1948.55,782.911 1947.89,786.077 1946.57,788.713 C1945.26,791.35 1943.36,793.364 1940.89,794.756 C1938.41,796.147 1935.43,796.843 1931.93,796.843 L1920.09,796.843 M1924.48,792.888 L1931.63,792.888 C1934.3,792.888 1936.56,792.359 1938.41,791.301 C1940.26,790.243 1941.66,788.701 1942.62,786.675 C1943.58,784.648 1944.06,782.178 1944.06,779.265 L1944.06,779.216 C1944.06,776.287 1943.58,773.804 1942.62,771.77 C1941.66,769.735 1940.26,768.193 1938.41,767.143 C1936.56,766.094 1934.3,765.569 1931.63,765.569 L1924.48,765.569 L1924.48,792.888 "/>
<path class="Lyrics" d="M2175.03,796.843 L2175.03,761.614 L2196.86,761.614 L2196.86,765.569 L2179.43,765.569 L2179.43,776.872 L2195.96,776.872 L2195.96,780.779 L2179.43,780.779 L2179.43,792.888 L2196.86,792.888 L2196.86,796.843 L2175.03,796.843 "/>
<path class="Lyrics" d="M1095.94,1106.29 L1095.94,1080.9 L1100.19,1080.9 L1100.19,1085.2 L1100.28,1085.2 C1100.71,1083.73 1101.44,1082.57 1102.48,1081.7 C1103.52,1080.84 1104.76,1080.41 1106.19,1080.41 C1106.57,1080.41 1106.9,1080.43 1107.2,1080.47 C1107.51,1080.51 1107.74,1080.55 1107.9,1080.58 L1107.9,1084.71 C1107.74,1084.64 1107.45,1084.58 1107.03,1084.54 C1106.62,1084.49 1106.15,1084.46 1105.63,1084.46 C1104.54,1084.46 1103.58,1084.71 1102.76,1085.2 C1101.94,1085.68 1101.3,1086.39 1100.86,1087.31 C1100.41,1088.23 1100.19,1089.33 1100.19,1090.61 L1100.19,1106.29 L1095.94,1106.29 M1121.51,1106.78 C1119.09,1106.78 1117,1106.24 1115.25,1105.17 C1113.5,1104.09 1112.16,1102.57 1111.22,1100.61 C1110.28,1098.65 1109.82,1096.34 1109.82,1093.69 L1109.82,1093.67 C1109.82,1091.05 1110.29,1088.74 1111.23,1086.75 C1112.18,1084.75 1113.5,1083.2 1115.21,1082.08 C1116.92,1080.97 1118.93,1080.41 1121.24,1080.41 C1123.55,1080.41 1125.54,1080.94 1127.21,1082.01 C1128.88,1083.08 1130.16,1084.57 1131.06,1086.49 C1131.95,1088.41 1132.4,1090.64 1132.4,1093.18 L1132.4,1094.74 L1111.94,1094.74 L1111.94,1091.42 L1130.3,1091.42 L1128.15,1094.5 L1128.15,1092.86 C1128.15,1090.89 1127.85,1089.26 1127.26,1087.98 C1126.67,1086.69 1125.85,1085.74 1124.81,1085.11 C1123.77,1084.48 1122.57,1084.17 1121.22,1084.17 C1119.87,1084.17 1118.65,1084.5 1117.58,1085.16 C1116.51,1085.82 1115.66,1086.79 1115.04,1088.09 C1114.42,1089.38 1114.11,1090.97 1114.11,1092.86 L1114.11,1094.5 C1114.11,1096.29 1114.42,1097.82 1115.03,1099.09 C1115.64,1100.36 1116.51,1101.33 1117.63,1102 C1118.75,1102.68 1120.08,1103.02 1121.61,1103.02 C1122.68,1103.02 1123.64,1102.85 1124.49,1102.53 C1125.34,1102.2 1126.04,1101.76 1126.61,1101.19 C1127.18,1100.62 1127.59,1099.97 1127.83,1099.23 L1127.91,1099.01 L1132.08,1099.01 L1132.03,1099.26 C1131.82,1100.3 1131.42,1101.28 1130.83,1102.19 C1130.23,1103.1 1129.47,1103.9 1128.54,1104.59 C1127.61,1105.28 1126.56,1105.82 1125.37,1106.2 C1124.18,1106.59 1122.89,1106.78 1121.51,1106.78 M1145.03,1106.78 C1143.35,1106.78 1141.88,1106.46 1140.61,1105.82 C1139.34,1105.19 1138.35,1104.29 1137.65,1103.14 C1136.94,1101.98 1136.58,1100.64 1136.58,1099.11 L1136.58,1099.06 C1136.58,1097.61 1136.95,1096.36 1137.67,1095.3 C1138.39,1094.24 1139.44,1093.41 1140.82,1092.79 C1142.19,1092.17 1143.85,1091.8 1145.79,1091.69 L1155.19,1091.15 L1155.19,1094.45 L1146.28,1094.99 C1144.58,1095.08 1143.27,1095.49 1142.33,1096.21 C1141.4,1096.92 1140.93,1097.87 1140.93,1099.06 L1140.93,1099.11 C1140.93,1100.33 1141.39,1101.3 1142.31,1102.02 C1143.23,1102.73 1144.45,1103.09 1145.98,1103.09 C1147.32,1103.09 1148.52,1102.81 1149.58,1102.25 C1150.65,1101.69 1151.5,1100.92 1152.12,1099.94 C1152.75,1098.96 1153.06,1097.87 1153.06,1096.65 L1153.06,1089.15 C1153.06,1087.6 1152.58,1086.39 1151.61,1085.5 C1150.64,1084.61 1149.27,1084.17 1147.5,1084.17 C1145.87,1084.17 1144.55,1084.52 1143.55,1085.23 C1142.55,1085.94 1141.93,1086.86 1141.69,1088 L1141.64,1088.22 L1137.54,1088.22 L1137.56,1087.95 C1137.69,1086.55 1138.17,1085.28 1138.99,1084.15 C1139.81,1083.01 1140.95,1082.1 1142.39,1081.42 C1143.84,1080.75 1145.56,1080.41 1147.55,1080.41 C1149.55,1080.41 1151.28,1080.75 1152.73,1081.44 C1154.19,1082.12 1155.32,1083.08 1156.11,1084.33 C1156.91,1085.57 1157.31,1087.04 1157.31,1088.74 L1157.31,1106.29 L1153.06,1106.29 L1153.06,1102.16 L1152.97,1102.16 C1152.48,1103.09 1151.83,1103.9 1151.01,1104.59 C1150.2,1105.28 1149.28,1105.82 1148.27,1106.2 C1147.25,1106.59 1146.17,1106.78 1145.03,1106.78 M1163.88,1106.29 L1163.88,1071.06 L1168.12,1071.06 L1168.12,1106.29 L1163.88,1106.29 "/>
<path class="Lyrics" d="M1672.51,1106.29 L1672.51,1071.06 L1676.91,1071.06 L1676.91,1086.29 L1696.24,1086.29 L1696.24,1071.06 L1700.64,1071.06 L1700.64,1106.29 L1696.24,1106.29 L1696.24,1090.25 L1676.91,1090.25 L1676.91,1106.29 L1672.51,1106.29 M1714.45,1106.78 C1712.77,1106.78 1711.3,1106.46 1710.03,1105.82 C1708.76,1105.19 1707.77,1104.29 1707.06,1103.14 C1706.36,1101.98 1706,1100.64 1706,1099.11 L1706,1099.06 C1706,1097.61 1706.36,1096.36 1707.09,1095.3 C1707.81,1094.24 1708.86,1093.41 1710.24,1092.79 C1711.61,1092.17 1713.27,1091.8 1715.21,1091.69 L1724.6,1091.15 L1724.6,1094.45 L1715.69,1094.99 C1714,1095.08 1712.69,1095.49 1711.75,1096.21 C1710.81,1096.92 1710.35,1097.87 1710.35,1099.06 L1710.35,1099.11 C1710.35,1100.33 1710.81,1101.3 1711.73,1102.02 C1712.65,1102.73 1713.87,1103.09 1715.4,1103.09 C1716.74,1103.09 1717.94,1102.81 1719,1102.25 C1720.07,1101.69 1720.91,1100.92 1721.54,1099.94 C1722.17,1098.96 1722.48,1097.87 1722.48,1096.65 L1722.48,1089.15 C1722.48,1087.6 1722,1086.39 1721.03,1085.5 C1720.06,1084.61 1718.69,1084.17 1716.91,1084.17 C1715.29,1084.17 1713.97,1084.52 1712.97,1085.23 C1711.97,1085.94 1711.35,1086.86 1711.1,1088 L1711.05,1088.22 L1706.95,1088.22 L1706.98,1087.95 C1707.11,1086.55 1707.58,1085.28 1708.41,1084.15 C1709.23,1083.01 1710.36,1082.1 1711.81,1081.42 C1713.26,1080.75 1714.98,1080.41 1716.96,1080.41 C1718.97,1080.41 1720.69,1080.75 1722.15,1081.44 C1723.61,1082.12 1724.73,1083.08 1725.53,1084.33 C1726.33,1085.57 1726.73,1087.04 1726.73,1088.74 L1726.73,1106.29 L1722.48,1106.29 L1722.48,1102.16 L1722.38,1102.16 C1721.89,1103.09 1721.24,1103.9 1720.43,1104.59 C1719.62,1105.28 1718.7,1105.82 1717.68,1106.2 C1716.67,1106.59 1715.59,1106.78 1714.45,1106.78 M1733.07,1114.83 L1733.07,1080.9 L1737.32,1080.9 L1737.32,1085.2 L1737.42,1085.2 C1737.96,1084.2 1738.62,1083.35 1739.41,1082.64 C1740.2,1081.94 1741.11,1081.39 1742.13,1081 C1743.16,1080.61 1744.27,1080.41 1745.48,1080.41 C1747.64,1080.41 1749.53,1080.95 1751.15,1082.03 C1752.77,1083.12 1754.03,1084.65 1754.92,1086.62 C1755.82,1088.6 1756.27,1090.92 1756.27,1093.59 L1756.27,1093.62 C1756.27,1096.29 1755.82,1098.61 1754.91,1100.58 C1754.01,1102.55 1752.76,1104.07 1751.15,1105.15 C1749.55,1106.24 1747.68,1106.78 1745.55,1106.78 C1744.36,1106.78 1743.25,1106.59 1742.2,1106.2 C1741.16,1105.82 1740.24,1105.28 1739.43,1104.57 C1738.63,1103.86 1737.96,1103.02 1737.42,1102.04 L1737.32,1102.04 L1737.32,1114.83 L1733.07,1114.83 M1744.65,1103.02 C1746.14,1103.02 1747.44,1102.63 1748.53,1101.87 C1749.62,1101.1 1750.46,1100.02 1751.04,1098.61 C1751.63,1097.2 1751.92,1095.54 1751.92,1093.62 L1751.92,1093.59 C1751.92,1091.64 1751.63,1089.96 1751.04,1088.55 C1750.46,1087.14 1749.62,1086.06 1748.53,1085.3 C1747.44,1084.55 1746.14,1084.17 1744.65,1084.17 C1743.21,1084.17 1741.94,1084.56 1740.84,1085.34 C1739.73,1086.12 1738.86,1087.22 1738.24,1088.63 C1737.61,1090.03 1737.3,1091.69 1737.3,1093.59 L1737.3,1093.62 C1737.3,1095.51 1737.61,1097.15 1738.25,1098.56 C1738.88,1099.97 1739.75,1101.06 1740.85,1101.85 C1741.95,1102.63 1743.21,1103.02 1744.65,1103.02"/>
<path class="Lyrics" d="M1683.33,797.429 C1680.07,797.429 1677.24,796.68 1674.82,795.183 C1672.4,793.686 1670.53,791.574 1669.22,788.848 C1667.9,786.121 1667.24,782.911 1667.24,779.216 L1667.24,779.192 C1667.24,775.497 1667.9,772.291 1669.22,769.573 C1670.53,766.855 1672.4,764.751 1674.81,763.262 C1677.22,761.772 1680.06,761.028 1683.33,761.028 C1685.77,761.028 1687.99,761.492 1689.99,762.419 C1691.99,763.347 1693.67,764.641 1695.01,766.301 C1696.35,767.961 1697.24,769.906 1697.68,772.136 L1697.73,772.38 L1693.29,772.38 L1693.12,771.843 C1692.66,770.411 1691.98,769.194 1691.08,768.193 C1690.18,767.192 1689.07,766.423 1687.77,765.886 C1686.47,765.349 1684.99,765.08 1683.33,765.08 C1680.98,765.08 1678.94,765.662 1677.21,766.826 C1675.48,767.99 1674.14,769.626 1673.18,771.733 C1672.23,773.841 1671.75,776.327 1671.75,779.192 L1671.75,779.216 C1671.75,782.064 1672.23,784.551 1673.18,786.675 C1674.14,788.799 1675.48,790.447 1677.22,791.619 C1678.97,792.79 1681,793.376 1683.33,793.376 C1684.97,793.376 1686.44,793.108 1687.73,792.571 C1689.03,792.034 1690.14,791.24 1691.07,790.19 C1691.99,789.141 1692.71,787.842 1693.21,786.296 L1693.29,786.077 L1697.73,786.077 L1697.68,786.321 C1697.24,788.567 1696.36,790.524 1695.02,792.192 C1693.69,793.861 1692.02,795.15 1690.02,796.062 C1688.01,796.973 1685.78,797.429 1683.33,797.429"/>
<path class="Lyrics" d="M733.765,796.843 L733.765,761.614 L738.159,761.614 L738.159,792.888 L755.151,792.888 L755.151,796.843 L733.765,796.843 M769.992,797.331 C767.567,797.331 765.48,796.794 763.73,795.72 C761.98,794.646 760.637,793.128 759.702,791.167 C758.766,789.206 758.298,786.898 758.298,784.245 L758.298,784.221 C758.298,781.601 758.77,779.294 759.714,777.3 C760.658,775.306 761.984,773.752 763.693,772.637 C765.402,771.522 767.412,770.964 769.724,770.964 C772.035,770.964 774.024,771.497 775.693,772.563 C777.361,773.629 778.643,775.123 779.538,777.043 C780.433,778.964 780.881,781.194 780.881,783.733 L780.881,785.295 L760.422,785.295 L760.422,781.975 L778.781,781.975 L776.633,785.051 L776.633,783.415 C776.633,781.446 776.336,779.818 775.742,778.533 C775.148,777.247 774.33,776.291 773.288,775.664 C772.246,775.037 771.05,774.724 769.699,774.724 C768.348,774.724 767.136,775.054 766.061,775.713 C764.987,776.372 764.141,777.349 763.522,778.642 C762.904,779.936 762.595,781.527 762.595,783.415 L762.595,785.051 C762.595,786.842 762.9,788.371 763.51,789.641 C764.121,790.911 764.987,791.883 766.11,792.558 C767.233,793.234 768.56,793.572 770.09,793.572 C771.164,793.572 772.124,793.409 772.971,793.083 C773.817,792.758 774.525,792.31 775.095,791.741 C775.664,791.171 776.071,790.52 776.315,789.787 L776.389,789.568 L780.563,789.568 L780.515,789.812 C780.303,790.854 779.9,791.83 779.306,792.742 C778.712,793.653 777.951,794.455 777.023,795.146 C776.096,795.838 775.038,796.375 773.85,796.758 C772.661,797.14 771.376,797.331 769.992,797.331 M794.342,797.331 C792.014,797.331 790.273,796.778 789.117,795.671 C787.961,794.564 787.384,792.799 787.384,790.373 L787.384,774.968 L783.673,774.968 L783.673,771.453 L787.384,771.453 L787.384,764.592 L791.778,764.592 L791.778,771.453 L796.612,771.453 L796.612,774.968 L791.778,774.968 L791.778,790.349 C791.778,791.7 792.071,792.615 792.657,793.096 C793.243,793.576 794.106,793.816 795.245,793.816 C795.505,793.816 795.754,793.804 795.99,793.779 C796.226,793.755 796.433,793.734 796.612,793.718 L796.612,797.161 C796.352,797.193 796.014,797.23 795.599,797.27 C795.184,797.311 794.765,797.331 794.342,797.331"/>
<path class="Lyrics" d="M1388.86,1106.29 L1388.86,1071.06 L1393.1,1071.06 L1393.1,1106.29 L1388.86,1106.29 M1402.23,1114.83 C1401.83,1114.83 1401.42,1114.81 1401,1114.77 C1400.59,1114.73 1400.24,1114.69 1399.96,1114.64 L1399.96,1111.17 C1400.14,1111.2 1400.35,1111.24 1400.59,1111.27 C1400.82,1111.3 1401.07,1111.32 1401.33,1111.32 C1402.68,1111.32 1403.76,1111.08 1404.56,1110.61 C1405.37,1110.14 1406.03,1109.19 1406.53,1107.75 L1407.04,1106.31 L1397.62,1080.9 L1402.16,1080.9 L1409.48,1103.02 L1408.58,1102.04 L1409.85,1102.04 L1408.95,1103.02 L1416.3,1080.9 L1420.76,1080.9 L1410.85,1107.88 C1410.25,1109.49 1409.57,1110.81 1408.82,1111.83 C1408.08,1112.86 1407.17,1113.61 1406.11,1114.1 C1405.06,1114.59 1403.76,1114.83 1402.23,1114.83"/>
<path class="Lyrics" d="M791.873,1106.78 C789.887,1106.78 788.17,1106.46 786.721,1105.82 C785.273,1105.19 784.129,1104.3 783.291,1103.16 C782.453,1102.02 781.944,1100.7 781.765,1099.18 L781.741,1098.96 L785.989,1098.96 L786.038,1099.21 C786.298,1100.48 786.908,1101.47 787.869,1102.17 C788.829,1102.88 790.172,1103.24 791.897,1103.24 C793.053,1103.24 794.037,1103.09 794.851,1102.79 C795.665,1102.48 796.292,1102.05 796.731,1101.49 C797.171,1100.93 797.39,1100.27 797.39,1099.5 L797.39,1099.48 C797.39,1098.57 797.114,1097.83 796.56,1097.28 C796.007,1096.73 795.006,1096.27 793.557,1095.91 L789.529,1094.94 C787.934,1094.55 786.611,1094.04 785.562,1093.41 C784.512,1092.78 783.727,1092.01 783.206,1091.1 C782.685,1090.19 782.424,1089.13 782.424,1087.9 L782.424,1087.88 C782.424,1086.42 782.819,1085.12 783.609,1084 C784.398,1082.88 785.497,1082 786.904,1081.36 C788.312,1080.73 789.928,1080.41 791.751,1080.41 C793.606,1080.41 795.221,1080.74 796.597,1081.4 C797.972,1082.06 799.054,1082.95 799.844,1084.08 C800.633,1085.22 801.077,1086.49 801.174,1087.9 L801.199,1088.22 L797.146,1088.22 L797.122,1088.05 C796.959,1086.81 796.418,1085.82 795.498,1085.07 C794.579,1084.32 793.329,1083.95 791.751,1083.95 C790.725,1083.95 789.838,1084.1 789.089,1084.41 C788.341,1084.72 787.767,1085.16 787.368,1085.72 C786.97,1086.28 786.77,1086.94 786.77,1087.69 L786.77,1087.71 C786.77,1088.28 786.904,1088.8 787.173,1089.26 C787.442,1089.72 787.869,1090.13 788.455,1090.47 C789.041,1090.81 789.797,1091.1 790.725,1091.32 L794.754,1092.3 C796.463,1092.71 797.826,1093.22 798.843,1093.84 C799.86,1094.46 800.597,1095.2 801.052,1096.07 C801.508,1096.94 801.736,1097.98 801.736,1099.18 L801.736,1099.21 C801.736,1100.69 801.309,1102 800.454,1103.14 C799.6,1104.28 798.428,1105.17 796.939,1105.81 C795.449,1106.46 793.761,1106.78 791.873,1106.78 M817.589,1106.78 C815.246,1106.78 813.191,1106.24 811.425,1105.17 C809.659,1104.09 808.284,1102.57 807.299,1100.59 C806.314,1098.61 805.822,1096.28 805.822,1093.59 L805.822,1093.54 C805.822,1090.84 806.314,1088.51 807.299,1086.55 C808.284,1084.59 809.659,1083.08 811.425,1082.01 C813.191,1080.94 815.238,1080.41 817.565,1080.41 C819.909,1080.41 821.964,1080.94 823.73,1082.01 C825.496,1083.08 826.871,1084.59 827.856,1086.55 C828.84,1088.51 829.333,1090.84 829.333,1093.54 L829.333,1093.59 C829.333,1096.3 828.84,1098.63 827.856,1100.6 C826.871,1102.57 825.5,1104.09 823.742,1105.17 C821.984,1106.24 819.933,1106.78 817.589,1106.78 M817.614,1103.02 C819.111,1103.02 820.409,1102.65 821.508,1101.91 C822.607,1101.17 823.461,1100.09 824.071,1098.68 C824.682,1097.28 824.987,1095.58 824.987,1093.59 L824.987,1093.54 C824.987,1091.56 824.682,1089.87 824.071,1088.47 C823.461,1087.07 822.598,1086 821.484,1085.27 C820.369,1084.54 819.062,1084.17 817.565,1084.17 C816.1,1084.17 814.81,1084.54 813.695,1085.28 C812.581,1086.02 811.714,1087.09 811.095,1088.48 C810.477,1089.87 810.168,1091.56 810.168,1093.54 L810.168,1093.59 C810.168,1095.58 810.477,1097.28 811.095,1098.68 C811.714,1100.09 812.581,1101.17 813.695,1101.91 C814.81,1102.65 816.116,1103.02 817.614,1103.02 M843.218,1106.78 C841.363,1106.78 839.78,1106.39 838.47,1105.63 C837.16,1104.86 836.159,1103.78 835.467,1102.37 C834.775,1100.96 834.429,1099.3 834.429,1097.38 L834.429,1080.9 L838.677,1080.9 L838.677,1096.62 C838.677,1098.69 839.162,1100.27 840.13,1101.37 C841.098,1102.47 842.559,1103.02 844.512,1103.02 C845.521,1103.02 846.429,1102.85 847.234,1102.5 C848.04,1102.16 848.736,1101.68 849.322,1101.05 C849.908,1100.43 850.355,1099.67 850.665,1098.78 C850.974,1097.89 851.129,1096.91 851.129,1095.84 L851.129,1080.9 L855.377,1080.9 L855.377,1106.29 L851.129,1106.29 L851.129,1102.68 L851.031,1102.68 C850.575,1103.46 849.985,1104.16 849.261,1104.78 C848.537,1105.39 847.67,1105.88 846.661,1106.24 C845.652,1106.6 844.504,1106.78 843.218,1106.78 M861.833,1106.29 L861.833,1080.9 L866.081,1080.9 L866.081,1084.51 L866.178,1084.51 C866.862,1083.32 867.855,1082.34 869.157,1081.57 C870.459,1080.8 872.07,1080.41 873.991,1080.41 C876.774,1080.41 878.935,1081.25 880.473,1082.94 C882.011,1084.62 882.78,1086.91 882.78,1089.81 L882.78,1106.29 L878.532,1106.29 L878.532,1090.57 C878.532,1088.5 878.048,1086.92 877.079,1085.82 C876.111,1084.72 874.65,1084.17 872.697,1084.17 C871.362,1084.17 870.199,1084.47 869.206,1085.06 C868.213,1085.65 867.444,1086.49 866.899,1087.56 C866.353,1088.64 866.081,1089.9 866.081,1091.35 L866.081,1106.29 L861.833,1106.29 M898.66,1106.78 C896.495,1106.78 894.603,1106.24 892.984,1105.15 C891.364,1104.07 890.107,1102.54 889.212,1100.56 C888.316,1098.59 887.869,1096.26 887.869,1093.59 L887.869,1093.57 C887.869,1090.9 888.32,1088.58 889.224,1086.61 C890.127,1084.64 891.384,1083.12 892.996,1082.03 C894.607,1080.95 896.471,1080.41 898.587,1080.41 C899.791,1080.41 900.91,1080.6 901.943,1080.98 C902.977,1081.37 903.901,1081.91 904.714,1082.62 C905.528,1083.33 906.196,1084.17 906.716,1085.15 L906.814,1085.15 L906.814,1071.06 L911.062,1071.06 L911.062,1106.29 L906.814,1106.29 L906.814,1101.99 L906.716,1101.99 C906.196,1102.98 905.536,1103.84 904.739,1104.54 C903.941,1105.25 903.034,1105.8 902.017,1106.19 C900.999,1106.58 899.88,1106.78 898.66,1106.78 M899.49,1103.02 C900.922,1103.02 902.192,1102.63 903.298,1101.85 C904.405,1101.06 905.272,1099.97 905.899,1098.55 C906.525,1097.13 906.839,1095.48 906.839,1093.59 L906.839,1093.57 C906.839,1091.68 906.521,1090.03 905.886,1088.63 C905.252,1087.22 904.385,1086.12 903.286,1085.34 C902.188,1084.56 900.922,1084.17 899.49,1084.17 C897.992,1084.17 896.699,1084.55 895.608,1085.32 C894.518,1086.08 893.679,1087.16 893.093,1088.56 C892.507,1089.96 892.214,1091.63 892.214,1093.57 L892.214,1093.59 C892.214,1095.53 892.507,1097.21 893.093,1098.62 C893.679,1100.04 894.518,1101.13 895.608,1101.88 C896.699,1102.64 897.992,1103.02 899.49,1103.02 M926.748,1106.78 C924.762,1106.78 923.045,1106.46 921.596,1105.82 C920.148,1105.19 919.004,1104.3 918.166,1103.16 C917.328,1102.02 916.819,1100.7 916.64,1099.18 L916.616,1098.96 L920.864,1098.96 L920.913,1099.21 C921.173,1100.48 921.783,1101.47 922.744,1102.17 C923.704,1102.88 925.047,1103.24 926.772,1103.24 C927.928,1103.24 928.912,1103.09 929.726,1102.79 C930.54,1102.48 931.167,1102.05 931.606,1101.49 C932.046,1100.93 932.265,1100.27 932.265,1099.5 L932.265,1099.48 C932.265,1098.57 931.989,1097.83 931.435,1097.28 C930.882,1096.73 929.881,1096.27 928.432,1095.91 L924.404,1094.94 C922.809,1094.55 921.486,1094.04 920.437,1093.41 C919.387,1092.78 918.602,1092.01 918.081,1091.1 C917.56,1090.19 917.299,1089.13 917.299,1087.9 L917.299,1087.88 C917.299,1086.42 917.694,1085.12 918.484,1084 C919.273,1082.88 920.372,1082 921.779,1081.36 C923.187,1080.73 924.803,1080.41 926.626,1080.41 C928.481,1080.41 930.096,1080.74 931.472,1081.4 C932.847,1082.06 933.929,1082.95 934.719,1084.08 C935.508,1085.22 935.952,1086.49 936.049,1087.9 L936.074,1088.22 L932.021,1088.22 L931.997,1088.05 C931.834,1086.81 931.293,1085.82 930.373,1085.07 C929.454,1084.32 928.204,1083.95 926.626,1083.95 C925.6,1083.95 924.713,1084.1 923.964,1084.41 C923.216,1084.72 922.642,1085.16 922.243,1085.72 C921.845,1086.28 921.645,1086.94 921.645,1087.69 L921.645,1087.71 C921.645,1088.28 921.779,1088.8 922.048,1089.26 C922.317,1089.72 922.744,1090.13 923.33,1090.47 C923.916,1090.81 924.672,1091.1 925.6,1091.32 L929.629,1092.3 C931.338,1092.71 932.701,1093.22 933.718,1093.84 C934.735,1094.46 935.472,1095.2 935.927,1096.07 C936.383,1096.94 936.611,1097.98 936.611,1099.18 L936.611,1099.21 C936.611,1100.69 936.184,1102 935.329,1103.14 C934.475,1104.28 933.303,1105.17 931.814,1105.81 C930.324,1106.46 928.636,1106.78 926.748,1106.78"/>
<path class="Lyrics" d="M1225.11,805.388 L1225.11,771.453 L1229.36,771.453 L1229.36,775.749 L1229.46,775.749 C1229.99,774.757 1230.66,773.906 1231.45,773.198 C1232.24,772.49 1233.14,771.941 1234.17,771.55 C1235.19,771.16 1236.31,770.964 1237.51,770.964 C1239.68,770.964 1241.57,771.505 1243.19,772.588 C1244.81,773.67 1246.07,775.2 1246.96,777.178 C1247.86,779.155 1248.31,781.479 1248.31,784.148 L1248.31,784.172 C1248.31,786.842 1247.85,789.161 1246.95,791.13 C1246.05,793.1 1244.79,794.626 1243.19,795.708 C1241.59,796.79 1239.72,797.331 1237.59,797.331 C1236.4,797.331 1235.28,797.14 1234.24,796.758 C1233.2,796.375 1232.28,795.83 1231.47,795.122 C1230.67,794.414 1229.99,793.572 1229.46,792.595 L1229.36,792.595 L1229.36,805.388 L1225.11,805.388 M1236.68,793.572 C1238.18,793.572 1239.48,793.189 1240.57,792.424 C1241.66,791.659 1242.49,790.573 1243.08,789.165 C1243.67,787.757 1243.96,786.093 1243.96,784.172 L1243.96,784.148 C1243.96,782.195 1243.67,780.514 1243.08,779.106 C1242.49,777.698 1241.66,776.616 1240.57,775.859 C1239.48,775.102 1238.18,774.724 1236.68,774.724 C1235.25,774.724 1233.98,775.115 1232.88,775.896 C1231.77,776.677 1230.9,777.772 1230.28,779.18 C1229.65,780.587 1229.34,782.244 1229.34,784.148 L1229.34,784.172 C1229.34,786.06 1229.65,787.708 1230.29,789.116 C1230.92,790.524 1231.79,791.619 1232.89,792.4 C1233.99,793.181 1235.25,793.572 1236.68,793.572 M1253.74,796.843 L1253.74,761.614 L1257.99,761.614 L1257.99,796.843 L1253.74,796.843 M1272.1,797.331 C1270.42,797.331 1268.95,797.014 1267.68,796.379 C1266.41,795.745 1265.42,794.849 1264.71,793.694 C1264,792.538 1263.65,791.195 1263.65,789.665 L1263.65,789.617 C1263.65,788.168 1264.01,786.915 1264.74,785.857 C1265.46,784.799 1266.51,783.961 1267.88,783.342 C1269.26,782.724 1270.92,782.357 1272.85,782.244 L1282.25,781.706 L1282.25,785.002 L1273.34,785.539 C1271.65,785.637 1270.33,786.044 1269.4,786.76 C1268.46,787.476 1267.99,788.428 1267.99,789.617 L1267.99,789.665 C1267.99,790.886 1268.45,791.855 1269.37,792.571 C1270.29,793.287 1271.52,793.645 1273.05,793.645 C1274.38,793.645 1275.58,793.364 1276.65,792.803 C1277.72,792.241 1278.56,791.472 1279.19,790.495 C1279.81,789.519 1280.13,788.42 1280.13,787.2 L1280.13,779.704 C1280.13,778.158 1279.64,776.942 1278.68,776.055 C1277.71,775.168 1276.34,774.724 1274.56,774.724 C1272.93,774.724 1271.62,775.078 1270.62,775.786 C1269.62,776.494 1269,777.418 1268.75,778.557 L1268.7,778.777 L1264.6,778.777 L1264.63,778.508 C1264.76,777.108 1265.23,775.839 1266.05,774.7 C1266.88,773.56 1268.01,772.653 1269.46,771.977 C1270.91,771.302 1272.63,770.964 1274.61,770.964 C1276.61,770.964 1278.34,771.306 1279.8,771.99 C1281.26,772.673 1282.38,773.638 1283.18,774.883 C1283.98,776.128 1284.38,777.597 1284.38,779.289 L1284.38,796.843 L1280.13,796.843 L1280.13,792.717 L1280.03,792.717 C1279.54,793.645 1278.89,794.455 1278.08,795.146 C1277.26,795.838 1276.35,796.375 1275.33,796.758 C1274.31,797.14 1273.24,797.331 1272.1,797.331 M1293.16,805.388 C1292.76,805.388 1292.34,805.368 1291.93,805.327 C1291.51,805.286 1291.17,805.242 1290.89,805.193 L1290.89,801.726 C1291.07,801.759 1291.28,801.791 1291.51,801.824 C1291.75,801.856 1292,801.872 1292.26,801.872 C1293.61,801.872 1294.69,801.636 1295.49,801.164 C1296.3,800.692 1296.95,799.74 1297.46,798.308 L1297.97,796.868 L1288.55,771.453 L1293.09,771.453 L1300.41,793.572 L1299.51,792.595 L1300.78,792.595 L1299.88,793.572 L1307.22,771.453 L1311.69,771.453 L1301.78,798.43 C1301.18,800.041 1300.5,801.36 1299.75,802.385 C1299.01,803.411 1298.1,804.167 1297.04,804.656 C1295.99,805.144 1294.69,805.388 1293.16,805.388"/>
<path class="Fingering" d="M1005.48,585.604 L1005.48,582.577 L1017.88,569.637 C1019.48,567.977 1020.69,566.606 1021.53,565.523 C1022.37,564.441 1022.95,563.469 1023.27,562.606 C1023.58,561.743 1023.74,560.824 1023.74,559.847 L1023.74,559.798 C1023.74,558.594 1023.46,557.528 1022.9,556.6 C1022.34,555.672 1021.56,554.944 1020.58,554.415 C1019.6,553.886 1018.46,553.622 1017.17,553.622 C1015.71,553.622 1014.4,553.927 1013.24,554.537 C1012.09,555.147 1011.18,555.965 1010.51,556.991 C1009.84,558.016 1009.51,559.164 1009.51,560.433 L1009.51,560.555 L1005.26,560.555 L1005.26,560.409 C1005.26,558.374 1005.79,556.555 1006.85,554.952 C1007.9,553.349 1009.33,552.088 1011.13,551.168 C1012.93,550.248 1014.92,549.789 1017.1,549.789 C1019.23,549.789 1021.13,550.22 1022.79,551.082 C1024.45,551.945 1025.76,553.117 1026.71,554.598 C1027.66,556.079 1028.14,557.739 1028.14,559.579 L1028.14,559.627 C1028.14,560.913 1027.9,562.158 1027.42,563.363 C1026.94,564.567 1026.1,565.922 1024.91,567.428 C1023.73,568.933 1022.05,570.793 1019.88,573.006 L1010.22,582.918 L1011.51,580.208 L1011.51,582.918 L1010.22,581.698 L1028.72,581.698 L1028.72,585.604 L1005.48,585.604 "/>
<path class="Fingering" d="M1268.54,585.612 C1266.12,585.612 1264,585.197 1262.2,584.367 C1260.39,583.537 1258.96,582.397 1257.91,580.949 C1256.86,579.5 1256.25,577.848 1256.09,575.993 L1256.07,575.7 L1260.29,575.7 L1260.32,575.944 C1260.45,577.099 1260.87,578.117 1261.57,578.996 C1262.28,579.874 1263.23,580.562 1264.42,581.059 C1265.61,581.555 1266.98,581.803 1268.54,581.803 C1270.09,581.803 1271.44,581.535 1272.61,580.998 C1273.77,580.46 1274.68,579.716 1275.33,578.764 C1275.98,577.811 1276.31,576.717 1276.31,575.48 L1276.31,575.431 C1276.31,573.266 1275.59,571.602 1274.15,570.438 C1272.71,569.275 1270.75,568.693 1268.27,568.693 L1263.86,568.693 L1263.86,564.982 L1268.08,564.982 C1269.48,564.982 1270.72,564.717 1271.79,564.188 C1272.86,563.659 1273.7,562.935 1274.31,562.016 C1274.91,561.096 1275.21,560.05 1275.21,558.878 L1275.21,558.83 C1275.21,557.593 1274.95,556.543 1274.43,555.68 C1273.91,554.818 1273.15,554.158 1272.14,553.703 C1271.14,553.247 1269.93,553.019 1268.49,553.019 C1267.11,553.019 1265.88,553.251 1264.8,553.715 C1263.71,554.179 1262.85,554.842 1262.2,555.705 C1261.54,556.567 1261.15,557.593 1261.02,558.781 L1261,559.025 L1256.78,559.025 L1256.8,558.781 C1257,556.86 1257.6,555.184 1258.62,553.751 C1259.64,552.319 1260.99,551.204 1262.67,550.407 C1264.36,549.609 1266.3,549.21 1268.49,549.21 C1270.74,549.21 1272.7,549.597 1274.37,550.37 C1276.03,551.143 1277.33,552.209 1278.25,553.568 C1279.17,554.927 1279.63,556.502 1279.63,558.292 L1279.63,558.341 C1279.63,559.79 1279.31,561.076 1278.68,562.199 C1278.04,563.322 1277.16,564.258 1276.04,565.006 C1274.92,565.755 1273.62,566.284 1272.16,566.593 L1272.16,566.691 C1274.73,566.902 1276.81,567.769 1278.39,569.291 C1279.98,570.813 1280.77,572.827 1280.77,575.333 L1280.77,575.382 C1280.77,577.335 1280.25,579.085 1279.19,580.631 C1278.13,582.178 1276.68,583.394 1274.84,584.281 C1273,585.168 1270.9,585.612 1268.54,585.612"/>
<path class="Fingering" d="M1685.26,586.198 L1685.26,555.631 L1685.16,555.631 L1675.84,562.125 L1675.84,557.707 L1685.21,550.968 L1689.51,550.968 L1689.51,586.198 L1685.26,586.198 "/>
<path class="Fingering" d="M1404.68,895.651 C1402.25,895.651 1400.14,895.236 1398.33,894.406 C1396.52,893.576 1395.09,892.437 1394.04,890.988 C1392.99,889.54 1392.39,887.887 1392.23,886.032 L1392.2,885.739 L1396.42,885.739 L1396.45,885.983 C1396.58,887.139 1397,888.156 1397.71,889.035 C1398.41,889.914 1399.36,890.602 1400.55,891.098 C1401.74,891.594 1403.11,891.843 1404.68,891.843 C1406.22,891.843 1407.58,891.574 1408.74,891.037 C1409.91,890.5 1410.81,889.755 1411.46,888.803 C1412.11,887.851 1412.44,886.756 1412.44,885.519 L1412.44,885.47 C1412.44,883.306 1411.72,881.642 1410.28,880.478 C1408.84,879.314 1406.88,878.732 1404.41,878.732 L1399.99,878.732 L1399.99,875.021 L1404.21,875.021 C1405.61,875.021 1406.85,874.757 1407.92,874.228 C1409,873.699 1409.84,872.975 1410.44,872.055 C1411.04,871.135 1411.34,870.09 1411.34,868.918 L1411.34,868.869 C1411.34,867.632 1411.08,866.582 1410.56,865.72 C1410.04,864.857 1409.28,864.198 1408.28,863.742 C1407.28,863.286 1406.06,863.058 1404.63,863.058 C1403.24,863.058 1402.01,863.29 1400.93,863.754 C1399.85,864.218 1398.98,864.881 1398.33,865.744 C1397.68,866.607 1397.29,867.632 1397.16,868.82 L1397.13,869.064 L1392.91,869.064 L1392.93,868.82 C1393.13,866.9 1393.73,865.223 1394.75,863.791 C1395.77,862.359 1397.12,861.244 1398.8,860.446 C1400.49,859.649 1402.43,859.25 1404.63,859.25 C1406.87,859.25 1408.83,859.636 1410.5,860.409 C1412.17,861.183 1413.46,862.249 1414.38,863.608 C1415.3,864.967 1415.76,866.541 1415.76,868.332 L1415.76,868.381 C1415.76,869.829 1415.44,871.115 1414.81,872.238 C1414.17,873.361 1413.29,874.297 1412.17,875.046 C1411.05,875.794 1409.75,876.323 1408.29,876.633 L1408.29,876.73 C1410.86,876.942 1412.94,877.809 1414.53,879.33 C1416.11,880.852 1416.91,882.866 1416.91,885.373 L1416.91,885.422 C1416.91,887.375 1416.38,889.124 1415.32,890.671 C1414.26,892.217 1412.81,893.434 1410.98,894.321 C1409.14,895.208 1407.04,895.651 1404.68,895.651"/>
<path class="Fingering" d="M1716.7,896.237 L1716.7,865.671 L1716.6,865.671 L1707.28,872.165 L1707.28,867.746 L1716.65,861.008 L1720.95,861.008 L1720.95,896.237 L1716.7,896.237 "/>
<path class="Fingering" d="M1922.91,585.604 L1922.91,582.577 L1935.32,569.637 C1936.91,567.977 1938.13,566.606 1938.97,565.523 C1939.8,564.441 1940.38,563.469 1940.7,562.606 C1941.02,561.743 1941.18,560.824 1941.18,559.847 L1941.18,559.798 C1941.18,558.594 1940.9,557.528 1940.33,556.6 C1939.77,555.672 1939,554.944 1938.01,554.415 C1937.03,553.886 1935.89,553.622 1934.61,553.622 C1933.14,553.622 1931.83,553.927 1930.68,554.537 C1929.52,555.147 1928.61,555.965 1927.94,556.991 C1927.28,558.016 1926.94,559.164 1926.94,560.433 L1926.94,560.555 L1922.69,560.555 L1922.69,560.409 C1922.69,558.374 1923.22,556.555 1924.28,554.952 C1925.34,553.349 1926.77,552.088 1928.57,551.168 C1930.36,550.248 1932.35,549.789 1934.54,549.789 C1936.67,549.789 1938.56,550.22 1940.22,551.082 C1941.88,551.945 1943.19,553.117 1944.14,554.598 C1945.09,556.079 1945.57,557.739 1945.57,559.579 L1945.57,559.627 C1945.57,560.913 1945.33,562.158 1944.85,563.363 C1944.37,564.567 1943.54,565.922 1942.35,567.428 C1941.16,568.933 1939.48,570.793 1937.32,573.006 L1927.65,582.918 L1928.94,580.208 L1928.94,582.918 L1927.65,581.698 L1946.16,581.698 L1946.16,585.604 L1922.91,585.604 "/>
<path class="Fingering" d="M767.828,586.198 L767.828,555.631 L767.73,555.631 L758.404,562.125 L758.404,557.707 L767.779,550.968 L772.076,550.968 L772.076,586.198 L767.828,586.198 "/>
<path class="Fingering" d="M861.712,896.237 L861.712,865.671 L861.614,865.671 L852.288,872.165 L852.288,867.746 L861.663,861.008 L865.96,861.008 L865.96,896.237 L861.712,896.237 "/>
<path class="Fingering" d="M1120.49,895.643 L1120.49,892.616 L1132.89,879.677 C1134.49,878.016 1135.7,876.645 1136.54,875.563 C1137.38,874.48 1137.96,873.508 1138.27,872.645 C1138.59,871.783 1138.75,870.863 1138.75,869.887 L1138.75,869.838 C1138.75,868.633 1138.47,867.567 1137.91,866.639 C1137.35,865.712 1136.57,864.983 1135.59,864.454 C1134.6,863.925 1133.47,863.661 1132.18,863.661 C1130.72,863.661 1129.41,863.966 1128.25,864.576 C1127.1,865.187 1126.18,866.005 1125.52,867.03 C1124.85,868.055 1124.52,869.203 1124.52,870.472 L1124.52,870.595 L1120.27,870.595 L1120.27,870.448 C1120.27,868.414 1120.8,866.595 1121.86,864.991 C1122.91,863.388 1124.34,862.127 1126.14,861.207 C1127.94,860.288 1129.93,859.828 1132.11,859.828 C1134.24,859.828 1136.14,860.259 1137.8,861.122 C1139.46,861.984 1140.76,863.156 1141.72,864.637 C1142.67,866.119 1143.14,867.779 1143.14,869.618 L1143.14,869.667 C1143.14,870.953 1142.9,872.198 1142.42,873.402 C1141.94,874.607 1141.11,875.962 1139.92,877.467 C1138.73,878.973 1137.06,880.832 1134.89,883.046 L1125.22,892.958 L1126.52,890.248 L1126.52,892.958 L1125.22,891.737 L1143.73,891.737 L1143.73,895.643 L1120.49,895.643 "/>
<path class="Fingering" d="M2125.84,896.237 L2125.84,865.671 L2125.75,865.671 L2116.42,872.165 L2116.42,867.746 L2125.79,861.008 L2130.09,861.008 L2130.09,896.237 L2125.84,896.237 "/>
<path class="Fingering" d="M2185.98,585.612 C2183.55,585.612 2181.44,585.197 2179.63,584.367 C2177.82,583.537 2176.4,582.397 2175.35,580.949 C2174.3,579.5 2173.69,577.848 2173.53,575.993 L2173.5,575.7 L2177.73,575.7 L2177.75,575.944 C2177.88,577.099 2178.3,578.117 2179.01,578.996 C2179.72,579.874 2180.66,580.562 2181.85,581.059 C2183.04,581.555 2184.42,581.803 2185.98,581.803 C2187.52,581.803 2188.88,581.535 2190.04,580.998 C2191.21,580.46 2192.11,579.716 2192.77,578.764 C2193.42,577.811 2193.74,576.717 2193.74,575.48 L2193.74,575.431 C2193.74,573.266 2193.02,571.602 2191.58,570.438 C2190.14,569.275 2188.18,568.693 2185.71,568.693 L2181.29,568.693 L2181.29,564.982 L2185.51,564.982 C2186.91,564.982 2188.15,564.717 2189.22,564.188 C2190.3,563.659 2191.14,562.935 2191.74,562.016 C2192.34,561.096 2192.64,560.05 2192.64,558.878 L2192.64,558.83 C2192.64,557.593 2192.38,556.543 2191.86,555.68 C2191.34,554.818 2190.58,554.158 2189.58,553.703 C2188.58,553.247 2187.36,553.019 2185.93,553.019 C2184.55,553.019 2183.31,553.251 2182.23,553.715 C2181.15,554.179 2180.28,554.842 2179.63,555.705 C2178.98,556.567 2178.59,557.593 2178.46,558.781 L2178.43,559.025 L2174.21,559.025 L2174.23,558.781 C2174.43,556.86 2175.04,555.184 2176.05,553.751 C2177.07,552.319 2178.42,551.204 2180.11,550.407 C2181.79,549.609 2183.73,549.21 2185.93,549.21 C2188.18,549.21 2190.13,549.597 2191.8,550.37 C2193.47,551.143 2194.76,552.209 2195.68,553.568 C2196.6,554.927 2197.06,556.502 2197.06,558.292 L2197.06,558.341 C2197.06,559.79 2196.74,561.076 2196.11,562.199 C2195.47,563.322 2194.6,564.258 2193.47,565.006 C2192.35,565.755 2191.06,566.284 2189.59,566.593 L2189.59,566.691 C2192.16,566.902 2194.24,567.769 2195.83,569.291 C2197.42,570.813 2198.21,572.827 2198.21,575.333 L2198.21,575.382 C2198.21,577.335 2197.68,579.085 2196.62,580.631 C2195.56,582.178 2194.12,583.394 2192.28,584.281 C2190.44,585.168 2188.34,585.612 2185.98,585.612"/>
<path class="Fingering" d="M574.966,895.643 L574.966,892.616 L587.369,879.677 C588.964,878.016 590.18,876.645 591.019,875.563 C591.857,874.48 592.435,873.508 592.752,872.645 C593.069,871.783 593.228,870.863 593.228,869.887 L593.228,869.838 C593.228,868.633 592.947,867.567 592.386,866.639 C591.824,865.712 591.051,864.983 590.067,864.454 C589.082,863.925 587.947,863.661 586.661,863.661 C585.196,863.661 583.886,863.966 582.73,864.576 C581.575,865.187 580.663,866.005 579.996,867.03 C579.328,868.055 578.995,869.203 578.995,870.472 L578.995,870.595 L574.747,870.595 L574.747,870.448 C574.747,868.414 575.276,866.595 576.334,864.991 C577.392,863.388 578.82,862.127 580.618,861.207 C582.417,860.288 584.407,859.828 586.588,859.828 C588.72,859.828 590.616,860.259 592.276,861.122 C593.936,861.984 595.242,863.156 596.194,864.637 C597.147,866.119 597.623,867.779 597.623,869.618 L597.623,869.667 C597.623,870.953 597.383,872.198 596.902,873.402 C596.422,874.607 595.588,875.962 594.4,877.467 C593.212,878.973 591.535,880.832 589.371,883.046 L579.703,892.958 L580.997,890.248 L580.997,892.958 L579.703,891.737 L598.209,891.737 L598.209,895.643 L574.966,895.643 "/>
<polyline class="LyricsLineSegment" fill="none" stroke="#000000" stroke-width="3.72" stroke-linejoin="bevel" points="1268.7,1092.59 1288.54,1092.59" />
<polyline class="LyricsLineSegment" fill="none" stroke="#000000" stroke-width="3.72" stroke-linejoin="bevel" points="1917.64,1092.59 1937.48,1092.59" />
</svg>